<svg xmlns="http://www.w3.org/2000/svg"  viewBox="0 0 48 48" width="480px" height="480px"><path fill="#d88a19" d="M4,43c-0.5,0-1-0.4-1-0.9c0-0.6,0.4-1,0.9-1.1c0.2,0,20.3-1.3,28.1-10.9c2.5-3.1,3.5-6.8,2.9-11 c0,0-1-5.8-2.8-8.6c-0.3-0.5-0.2-1.1,0.3-1.4c0.5-0.3,1.1-0.2,1.4,0.3c2.1,3.1,3.1,9.1,3.2,9.4c0.7,4.8-0.4,9-3.4,12.6 C25.2,41.7,4.9,42.9,4,43C4,43,4,43,4,43z"/><path fill="#f9a825" d="M36.9 11.8c.4 1.3-.3 2.7-1.7 3.1-1.3.4-2.7-.3-3.1-1.7S32 5 32 5 36.5 10.4 36.9 11.8zM31.9 20.4c1 .9 2.6.8 3.5-.3.9-1 .8-2.6-.3-3.5C34.1 15.7 28 14 28 14S30.8 19.5 31.9 20.4z"/><path fill="#f9a825" d="M40.7 18.8c-.7 1.2-2.2 1.6-3.4.9-1.2-.7-1.6-2.2-.9-3.4C37 15 42 11 42 11S41.4 17.6 40.7 18.8zM31.9 26.4c1 .9 2.6.8 3.5-.3.9-1 .8-2.6-.3-3.5C34.1 21.7 28 20 28 20S30.8 25.5 31.9 26.4z"/><path fill="#f9a825" d="M39.8 26.7c-1.2.7-2.7.3-3.4-.9s-.3-2.7.9-3.4S44 21 44 21 40.9 26 39.8 26.7zM36.6 33.7c-1.2.6-2.7.1-3.3-1.1-.6-1.2-.1-2.7 1.1-3.3C35.6 28.6 42 29 42 29S37.8 33.1 36.6 33.7zM28.6 31.1c.9 1.1 2.4 1.2 3.5.4 1.1-.9 1.2-2.4.4-3.5C31.6 26.8 27 23 27 23S27.7 30 28.6 31.1zM37 37c0 0-5.1 2-6.5 2-1.4 0-2.5-1.1-2.5-2.5s1.1-2.5 2.5-2.5C31.8 34 37 37 37 37z"/><path fill="#f9a825" d="M24.3 34.4c.5 1.3 1.9 1.9 3.2 1.5s1.9-1.9 1.5-3.2c-.5-1.3-4.8-5.6-4.8-5.6S23.8 33.1 24.3 34.4zM19 35.5c0 1.4 1.1 2.5 2.5 2.5 1.4 0 2.5-1.1 2.5-2.5S21 29 21 29 19 34.2 19 35.5z"/><path fill="#f9a825" d="M21.9,39.2c-0.2,1.4,0.7,2.6,2.1,2.8s6.6,0,6.6,0s-4.5-4.7-5.8-4.9C23.4,36.9,22.1,37.9,21.9,39.2z"/></svg>