<svg xmlns="http://www.w3.org/2000/svg"  viewBox="0 0 48 48" width="480px" height="480px"><path fill="#D88A19" d="M20.07 6.244H22.07V46.912H20.07z" transform="rotate(45.001 21.07 26.578)"/><path fill="#F9A825" d="M40.067 12.485c-2.607 2.607-5.551 1.618-6.039 1.291-.492-.492-1.316-3.432 1.128-6.042 2.118-2.118 6.855-2.105 6.855-2.105S42.023 10.365 40.067 12.485zM21.764 28.424c2.938-.156 6.371.994 7.845 1.979-1.141 1.957-3.097 3.423-6.037 3.905-3.917.643-5.722-2.137-5.887-2.792C17.521 30.863 17.679 28.74 21.764 28.424zM23.551 25.65c.165.654 1.969 3.273 5.887 2.627 2.939-.482 4.896-2.11 6.035-4.068-1.801-1.311-5.068-2.135-7.845-1.65C24.851 23.041 23.387 24.998 23.551 25.65zM32.678 16.688c-2.774.974-3.301 2.219-3.133 2.707.458 1.333 2.818 3.174 6.248 2.364 2.775-.647 4.728-3.582 4.889-5.542C40.843 16.056 36.431 15.393 32.678 16.688z"/><path fill="#F9A825" d="M16.049 30.042c-.654-.164-3.271-1.968-2.791-5.887.481-2.938 1.949-4.895 3.906-6.034.982 1.31 2.136 4.743 1.978 7.846C18.824 30.051 16.703 30.207 16.049 30.042zM25.171 20.102c.484-2.776-.342-6.045-1.651-7.845-1.958 1.138-3.423 2.932-4.069 5.87-.645 3.919 1.974 5.723 2.626 5.887C22.731 24.342 24.688 22.878 25.171 20.102zM31.837 6.886c-1.96.159-4.895 1.948-5.705 4.889-.973 3.425.913 5.954 1.83 6.454.49.164 2.105-.239 3.24-3.013C32.501 11.298 31.837 6.886 31.837 6.886zM15.701 34.486c2.938-.156 6.371.994 7.845 1.979-1.141 1.957-3.097 3.423-6.037 3.905-3.917.643-5.722-2.137-5.887-2.792C11.458 36.926 11.616 34.803 15.701 34.486z"/><path fill="#F9A825" d="M9.986,36.104c-0.654-0.164-3.271-1.968-2.791-5.887c0.481-2.938,1.949-4.895,3.906-6.034c0.982,1.31,2.136,4.743,1.978,7.846C12.762,36.113,10.641,36.27,9.986,36.104z"/></svg>