<svg xmlns="http://www.w3.org/2000/svg"  viewBox="0 0 48 48" width="480px" height="480px" baseProfile="basic"><path fill="#b3e5fc" d="M6.875,19.625c0,0,5.625,8.25,2.75,20.125H38.5c0,0-4.5-6.75,2.5-20.25c0,0,1.375-4.625-17-5.5	C24,14,8,14.125,6.875,19.625z"/><path fill="#e0e0e0" d="M29,33L29,33l-5,1l-5-1c0,0-11,1.986-11,13h32C40,35.025,29,33,29,33"/><path fill="#c6c6c6" d="M29,33l-5,1l-5-1c0,0-6.202,1.12-9.292,6.342c-0.031,0.138-0.049,0.269-0.083,0.408H38.5	c0,0-0.105-0.158-0.257-0.471C35.138,34.132,29,33,29,33z"/><path fill="#ce8b05" d="M24,14c-9.389,0-17,2.462-17,5.5S14.611,25,24,25s17-2.462,17-5.5S33.389,14,24,14z"/><path fill="#ff9800" d="M19.62,33.744L19,33v-6h10v6l-0.62,0.744C26.101,36.479,21.899,36.479,19.62,33.744z"/><path fill="#ffa726" d="M35,21c0,1.105-0.896,2-2,2c-1.105,0-2-0.895-2-2s0.895-2,2-2C34.104,19,35,19.895,35,21 M17,21	c0-1.105-0.896-2-2-2c-1.106,0-2,0.895-2,2s0.894,2,2,2C16.104,23,17,22.105,17,21"/><path fill="#ffb74d" d="M33,15c0-7.635-18-4.971-18,0v7c0,4.971,4.028,9,9,9c4.971,0,9-4.029,9-9V15z"/><path fill="#784719" d="M27,21c0-0.551,0.448-1,1-1s1,0.449,1,1s-0.448,1-1,1S27,21.551,27,21 M19,21c0,0.551,0.448,1,1,1	s1-0.449,1-1s-0.448-1-1-1S19,20.449,19,21"/><path fill="#ce8b05" d="M24,14c-3.743,0-7.192,0.396-10,1.059V18c0,0,3-2,10-2s10,2,10,2v-2.941	C31.191,14.396,27.742,14,24,14z"/><path fill="#fbc02d" d="M28,5c-2,0-6,0-8,0s-6,5.029-6,10v0.059C16.808,14.396,20.257,14,24,14c3.742,0,7.191,0.396,10,1.059	V15C34,10.029,30,5,28,5z"/><path fill="#424242" d="M32,21l2-1.742V18c0,0-0.641-0.421-2-0.877V21z M14,18v1.286L16,21v-3.877C14.641,17.579,14,18,14,18	z"/></svg>