<svg xmlns="http://www.w3.org/2000/svg"  viewBox="0 0 48 48" width="480px" height="480px"><path fill="#cfd8dc" d="M26.268,4H26c-1.657,0-3,1.343-3,3v36h17l-3.007-29.319C36.429,8.182,31.796,4,26.268,4z"/><path fill="#cfd8dc" d="M21.732,4H22c1.657,0,3,1.343,3,3v36H8l3.007-29.319C11.571,8.182,16.204,4,21.732,4z"/><path fill="#c7b299" d="M45.402,46c-5.097-7.91-15.348-9.648-15.348-9.648H24h-6.054c0,0-10.273,1.707-15.364,9.648H45.402z"/><path fill="#cfd8dc" d="M36,42H12V17c0-6.627,5.373-12,12-12h0c6.627,0,12,5.373,12,12V42z"/><path fill="#ffcc80" d="M10.985,21.2c0,3.612,1.165,5.2,2.6,5.2c1.436,0,1.4-0.962,1.4-2.4c0-1.436,0.22-2.987-1-5	c-0.25-0.413-1.314-1.374-2-2C10.547,15.688,10.985,19.25,10.985,21.2"/><path fill="#ffa726" d="M31,27H17v8.969C17,39.3,19.7,42,23.031,42h1.938C28.3,42,31,39.3,31,35.969V27z"/><path fill="#ffcc80" d="M37,21.2c0,3.612-1.165,5.2-2.6,5.2c-1.437,0-1.4-0.962-1.4-2.4c0-1.436-0.22-2.987,1-5	c0.25-0.413,1.314-1.374,2-2C37.437,15.688,37,19.25,37,21.2"/><path fill="#ffb74d" d="M25,36h-1.566c-0.937,0-1.855-0.263-2.65-0.76l-1.614-1.009c-3.216-2.01-5.17-5.535-5.17-9.328V14	c0-3.314,2.686-6,6-6h5V36z"/><path fill="#37474f" d="M18,23c0,0.551,0.448,1,1,1s1-0.449,1-1s-0.448-1-1-1S18,22.449,18,23"/><path fill="#ffb74d" d="M23,36h1.566c0.937,0,1.855-0.263,2.65-0.76l1.614-1.009c3.216-2.01,5.17-5.535,5.17-9.328V14	c0-3.314-2.686-6-6-6h-5V36z"/><path fill="#37474f" d="M30,23c0,0.551-0.448,1-1,1s-1-0.449-1-1s0.448-1,1-1S30,22.449,30,23"/><polygon fill="#cfd8dc" points="36,46 31,46 31,33 36,27"/><path fill="#cfd8dc" d="M13,16.04h22v-2.004c0-3.61-2.926-6.536-6.536-6.536h-8.928C15.926,7.5,13,10.426,13,14.036V16.04z"/><path fill="#bdbdbd" d="M24,16c0,1.933-2.567,2-4.5,2S16,18.903,16,14.5c0-1.933,1.567-3.5,3.5-3.5S24,14.067,24,16z"/><ellipse cx="20.017" cy="16" fill="#ffb74d" rx="4.017" ry="3"/><path fill="#bdbdbd" d="M32,14.5c0,4.271-1.567,3.5-3.5,3.5S24,17.933,24,16s2.567-5,4.5-5S32,12.567,32,14.5z"/><ellipse cx="28" cy="16" fill="#ffb74d" rx="4" ry="3"/><polygon fill="#e0e0e0" points="32,46 16,46 16,27.167 19,30.167 29,30.167 32,27.167"/><polygon fill="#cfd8dc" points="7.702,46 16,46 16,15 11,15"/><polygon fill="#cfd8dc" points="40.3,46 32,46 32,15 37,15"/><ellipse cx="24" cy="33" fill="#e0e0e0" rx="7" ry="4"/><path fill="#ffb74d" d="M21,35h6v-0.83c0-0.646-0.524-1.17-1.17-1.17h-3.66C21.524,33,21,33.524,21,34.17V35z"/><path fill="#e0e0e0" d="M43,5.774l2.968,4.748C45.587,16.745,44.232,22.855,43,23.927c-1.23-1.072-2.584-7.182-2.968-13.406	L43,5.774 M43,2l-5,8c0,0,0.809,16,5,16s5-16,5-16L43,2L43,2z"/><path fill="#e0e0e0" d="M45.663,18.369c-2.395-2.192-4.656-4.262-4.709-6.675c-0.035-1.571,0.821-3.175,2.693-5.047 l0.707,0.707c-1.666,1.666-2.428,3.038-2.4,4.318c0.041,1.848,1.763,3.559,4.384,5.96L45.663,18.369z"/><path fill="#e0e0e0" d="M40.337,18.369l-0.675-0.737c2.622-2.401,4.343-4.112,4.384-5.96c0.028-1.28-0.735-2.652-2.4-4.318 l0.707-0.707c1.872,1.872,2.728,3.476,2.693,5.047C44.993,14.106,42.732,16.177,40.337,18.369z"/><polygon fill="#bdbdbd" points="16,15 16,46 14,46"/><polygon fill="#bdbdbd" points="32,15 32,46 34,46"/><path fill="#e0e0e0" d="M41.278,21.416l-0.557-0.831c2.099-1.405,3.672-3.615,4.808-6.754l0.94,0.34 C45.259,17.518,43.561,19.887,41.278,21.416z"/><path fill="#e0e0e0" d="M44.722,21.416c-2.282-1.528-3.98-3.898-5.192-7.246l0.94-0.34c1.136,3.14,2.709,5.349,4.808,6.754 L44.722,21.416z"/><rect width="2" height="22" x="42" y="24" fill="#e0e0e0"/></svg>