<svg xmlns="http://www.w3.org/2000/svg"  viewBox="0 0 48 48" width="480px" height="480px"><polygon fill="#fbc02d" points="41.246,45 46.148,31.532 44.269,30.848 39.118,45"/><polygon fill="#fbc02d" points="36.156,45 42.806,26.729 40.927,26.045 34.028,45"/><polygon fill="#afb42b" points="40.498,30.146 39.303,27.582 40.899,23.197 42.094,25.761"/><polygon fill="#afb42b" points="40.498,30.146 43.062,28.95 44.658,24.565 42.094,25.761"/><polygon fill="#afb42b" points="43.84,34.949 42.645,32.385 44.241,28 45.437,30.563"/><polygon fill="#afb42b" points="43.84,34.949 46.404,33.753 48,29.368 45.437,30.563"/><path fill="#a1887f" d="M45.402,46c-5.097-7.91-15.348-9.648-15.348-9.648H24h-6.054c0,0-10.273,1.707-15.364,9.648H12	l1.016-1H16l0.983,1H31l1.016-1h3l0.968,1H45.402z"/><path fill="#fff176" d="M36,42H12V17c0-6.627,5.373-12,12-12h0c6.627,0,12,5.373,12,12V42z"/><path fill="#ffcc80" d="M10.985,21.2c0,3.612,1.165,5.2,2.6,5.2c1.436,0,1.4-0.962,1.4-2.4c0-1.436,0.22-2.987-1-5	c-0.25-0.413-1.314-1.374-2-2C10.547,15.688,10.985,19.25,10.985,21.2"/><path fill="#ffcc80" d="M31,27H17v8.969C17,39.3,19.7,42,23.031,42h1.938C28.3,42,31,39.3,31,35.969V27z"/><path fill="#ffcc80" d="M37,21.2c0,3.612-1.165,5.2-2.6,5.2c-1.437,0-1.4-0.962-1.4-2.4c0-1.436-0.22-2.987,1-5	c0.25-0.413,1.314-1.374,2-2C37.438,15.688,37,19.25,37,21.2"/><path fill="#ffe0b2" d="M25,36h-1.566c-0.937,0-1.855-0.263-2.65-0.76l-1.614-1.009c-3.216-2.01-5.17-5.535-5.17-9.328V14	c0-3.314,2.686-6,6-6h5V36z"/><path fill="#784719" d="M18,23c0,0.551,0.448,1,1,1s1-0.449,1-1s-0.448-1-1-1S18,22.449,18,23"/><path fill="#ffe0b2" d="M23,36h1.566c0.937,0,1.855-0.263,2.65-0.76l1.614-1.009c3.216-2.01,5.17-5.535,5.17-9.328V14	c0-3.314-2.686-6-6-6h-5V36z"/><path fill="#784719" d="M30,23c0,0.551-0.448,1-1,1s-1-0.449-1-1s0.448-1,1-1S30,22.449,30,23"/><ellipse cx="24" cy="9.5" fill="#fff176" rx="10" ry="5.5"/><path fill="#fff176" d="M24,6v10h1.265c1.132,0,2.238-0.335,3.179-0.963l1.169-0.78C29.865,14.09,30.162,14,30.465,14h0	C31.313,14,32,14.687,32,15.535v3.648c0,1.185,0.351,2.343,1.008,3.328L34,24V12.473c0-3.6-2.915-6.517-6.515-6.528	C25.581,5.94,24,5.95,24,6z"/><path fill="#fff176" d="M24,6v10h-1.265c-1.132,0-2.238-0.335-3.179-0.963l-1.169-0.78C18.135,14.09,17.838,14,17.535,14h0	C16.687,14,16,14.687,16,15.535v3.648c0,1.185-0.351,2.343-1.008,3.328L14,24V12.473c0-3.6,2.915-6.517,6.515-6.528	C22.419,5.94,24,5.95,24,6z"/><path fill="#ffeb3b" d="M28.323,15.181c0.428-0.225,0.822-0.502,1.216-0.778C31.137,13.282,33.37,12.045,35,13	c0.355,0.208,0.398,0.496,0.5,1c0.37-2.836-0.528-4.59-1.5-6c-0.218-0.316-0.643-0.667-1-1c0.166,0.088-1.548,2.797-3,5	c-0.51,0.773-2.527,3.411-3.39,3.831C27.009,15.809,27.271,15.734,28.323,15.181z"/><rect width="4" height="5" x="22" y="38" fill="#ffcc80"/><polygon fill="#a1887f" points="26,38 32,35 31,46 24,46 24,42"/><polygon fill="#fff176" points="36,46 31,46 31,33 36,27"/><polygon fill="#a1887f" points="22,38 16,35 17,46 24,46 24,42"/><polygon fill="#fff176" points="12,46 17,46 17,33 12,27"/><path fill="#ffeb3b" d="M19.635,15.181c-0.428-0.225-0.822-0.502-1.216-0.778c-1.598-1.121-3.832-2.358-5.461-1.403	c-0.355,0.208-0.398,0.496-0.5,1c-0.37-2.836,0.528-4.59,1.5-6c0.218-0.316,0.643-0.667,1-1c-0.166,0.088,1.548,2.797,3,5	c0.51,0.773,2.527,3.411,3.39,3.831C20.948,15.809,20.687,15.734,19.635,15.181z"/><path fill="#33691e" d="M23.105,44.629c-1.102,0-2.605-1.303-2.605-1.303s1.536-1.303,2.605-1.303	c0.839,0,2.171,0.583,2.171,1.303S23.945,44.629,23.105,44.629z"/><path fill="#33691e" d="M26.145,42.023c-0.075-0.338-0.606-0.786-0.868-1.086c-0.345-0.393-0.495-0.868-0.495-0.868	s-0.718,1.277-0.571,2.04c0.116,0.599,0.716,1.47,1.23,1.371C25.954,43.381,26.344,42.928,26.145,42.023z"/><polygon fill="#33691e" points="25.872,43.489 24,43.328 25.872,43.163 27.5,42.792 27.5,43.86"/><path fill="#33691e" d="M25.065,46c0.06-0.095,0.129-0.193,0.211-0.286c0.262-0.299,0.794-0.747,0.868-1.086	c0.199-0.904-0.191-1.358-0.704-1.457c-0.514-0.099-1.114,0.771-1.229,1.371c-0.083,0.431,0.11,1.021,0.293,1.457H25.065z"/></svg>