<svg xmlns="http://www.w3.org/2000/svg" xmlns:xlink="http://www.w3.org/1999/xlink" viewBox="0 0 48 48" width="480px" height="480px"><path fill="#ffa726" d="M14,26.5c0,1.932-1.567,3.5-3.5,3.5S7,28.432,7,26.5c0-1.933,1.567-3.5,3.5-3.5S14,24.567,14,26.5"/><path fill="#ffa726" d="M41,26.5c0,1.932-1.567,3.5-3.5,3.5S34,28.432,34,26.5c0-1.933,1.567-3.5,3.5-3.5S41,24.567,41,26.5"/><path fill="#ffb74d" d="M37,17.443c0-11.96-26-11.279-26,0v14.279C11,39.509,16.821,43,24,43s13-3.491,13-11.279V17.443z"/><path fill="#1a1a1a" d="M3,11l3.208,7.218C6.69,19.302,7.764,20,8.95,20H39.05c1.186,0,2.26-0.698,2.741-1.782L45,11l0,0	c-4.754,1.783-10.114,0.252-13.209-3.772l-2.962-3.851C27.676,1.878,25.892,1,24.001,1h-0.003c-1.891,0-3.674,0.878-4.827,2.377	l-2.962,3.851C13.114,11.252,7.754,12.783,3,11L3,11z"/><path fill="#fff" d="M28,11c0-2.209-1.791-4-4-4s-4,1.791-4,4c0,0.09-1,1.251-1,2c0,1.105,0.895,2,2,2	c0.465,0,0.888-0.165,1.227-0.431C22.298,14.604,23,16,23,16h2c0,0,0.702-1.396,0.773-1.431C26.112,14.835,26.535,15,27,15	c1.105,0,2-0.895,2-2C29,12.251,28,11.09,28,11z"/><defs><rect id="shTkRfCtrRRk2q7k_~2pFa" width="159" height="91" x="-322" y="-209"/></defs><clipPath id="shTkRfCtrRRk2q7k_~2pFb"><use overflow="visible" xlink:href="#shTkRfCtrRRk2q7k_~2pFa"/></clipPath><path fill="#784719" d="M20,25.5c0-0.829-0.672-1.5-1.5-1.5c-0.829,0-1.5,0.671-1.5,1.5s0.67,1.5,1.5,1.5	C19.328,27,20,26.33,20,25.5"/><path fill="#bf360c" d="M37.003,29.997c0,3.497-1.533,8.075-6.003,10.437V37c0-0.153,0.033-0.856,0-1c-0.264-1.745-1-2-4-2	h-6c-3,0-3.736,0.255-4,2c-0.033,0.144,0,0.847,0,1v3.444c-4.469-2.365-6.003-6.949-6.003-10.447c0,0-0.997,2.796-0.997,5.959	C10,41.833,14,46,24,46s14-4.167,14-10.044C38,32.794,37.003,29.997,37.003,29.997z"/><rect width="6" height="2" x="15" y="22" fill="#bf360c"/><ellipse cx="26" cy="11.5" fill="#1a1a1a" rx="1" ry="1.5"/><ellipse cx="22" cy="11.5" fill="#1a1a1a" rx="1" ry="1.5"/><polygon fill="#1a1a1a" points="23,14 25,14 24,13"/><polygon fill="#bf360c" points="9,20 9,24 12,25 12,20"/><polygon fill="#bf360c" points="39,20 39,22 36,23 36,20"/><circle cx="29.5" cy="25.5" r="4.5" fill="#1a1a1a"/><g><path fill="#1a1a1a" d="M31.589,25.054c-7.04,0-11.321-5.367-11.378-5.44l-0.614-0.789l1.579-1.228l0.612,0.788 C22.062,18.732,28.909,26.501,39,21v2C36.102,24.581,33.932,25.054,31.589,25.054z"/></g><path fill="#ffa726" d="M20,37h8c0,0-1.6,3-4,3S20,37,20,37z"/></svg>