<svg xmlns="http://www.w3.org/2000/svg"  viewBox="0 0 48 48" width="480px" height="480px" baseProfile="basic"><rect width="4" height="4" x="12" y="39" fill="#ef6c00"/><rect width="4" height="4" x="32" y="39" fill="#ef6c00"/><path fill="#ffa000" d="M8,41V8h32v33H8z"/><path fill="#5d4037" d="M21,35c0-1.657,1.343-3,3-3s3,1.343,3,3H21z"/><path fill="#5d4037" d="M21,19c0-1.657,1.343-3,3-3s3,1.343,3,3H21z"/><path fill="#e79201" d="M8,14v-2.375h32V14H8z"/><path fill="#e79201" d="M8,30.25v-2.375h32v2.375H8z"/><rect width="38" height="4" x="5" y="8" fill="#ef6c00"/><rect width="38" height="4" x="5" y="24" fill="#ef6c00"/></svg>