<svg xmlns="http://www.w3.org/2000/svg"  viewBox="0 0 48 48" width="480px" height="480px"><path fill="#2E7D32" d="M24.5 6A5.5 5.5 0 1 0 24.5 17 5.5 5.5 0 1 0 24.5 6zM36.5 12A4.5 4.5 0 1 0 36.5 21 4.5 4.5 0 1 0 36.5 12z"/><path fill="#388E3C" d="M17 9A5 5 0 1 0 17 19 5 5 0 1 0 17 9zM8.5 16A3.5 3.5 0 1 0 8.5 23 3.5 3.5 0 1 0 8.5 16zM39.5 16A3.5 3.5 0 1 0 39.5 23 3.5 3.5 0 1 0 39.5 16zM30 9A5 5 0 1 0 30 19 5 5 0 1 0 30 9z"/><path fill="#4CAF50" d="M21 14A5 5 0 1 0 21 24A5 5 0 1 0 21 14Z"/><path fill="#4CAF50" d="M13 12A5 5 0 1 0 13 22 5 5 0 1 0 13 12zM34 16A4 4 0 1 0 34 24 4 4 0 1 0 34 16z"/><g><path fill="#9CCC65" d="M27.5 16A3.5 3.5 0 1 0 27.5 23 3.5 3.5 0 1 0 27.5 16zM15.5 16A2.5 2.5 0 1 0 15.5 21 2.5 2.5 0 1 0 15.5 16z"/></g><path fill="#795548" d="M5 20H43V42H5z"/><g><path fill="#4E342E" d="M5 26H43V28H5zM5 34H43V36H5z"/></g><g><path fill="#8D6E63" d="M9 20H13V42H9zM35 20H39V42H35z"/></g><g><path fill="#6D4C41" d="M7 20H9V42H7zM33 20H35V42H33z"/></g><g><path fill="#3E2723" d="M7 26H9V28H7zM7 34H9V36H7zM33 26H35V28H33zM33 34H35V36H33z"/></g></svg>