<svg xmlns="http://www.w3.org/2000/svg"  viewBox="0 0 48 48" width="480px" height="480px" fill-rule="evenodd" clip-rule="evenodd" baseProfile="basic"><path fill="#7cb342" d="M40.203,23.411c0,0,1.5,9.75,1.5,11c0,3.461,4.919,8.081,3,10c-1,1-3.701,1.474-9,1	c-1.245-0.111-2-0.25-3.5,0c-6,1-15,1-19,0s-8,0-9-1c-1.919-1.919,3-6.539,3-10c0-5.25,1-11,1-11"/><path fill="#7cb342" d="M41.444,14.25c0,0-9.658-2.555-16.682-2.355S7.444,14.25,7.444,14.25s4.234,4.509,8.93,5.151	c4.696,0.642,20.71-1.084,22.436-2.248S41.444,14.25,41.444,14.25z"/><path fill="#ffab91" d="M9.672,15.267c0,0,8.509-11.84,15.273-12.017c8.403-0.22,14.629,11.937,14.629,11.937l-0.241,1.927	l-14.569,3.251l-14.85-3.412L9.672,15.267z"/><path fill="#689f38" d="M8.053,22.344v1.712c0,0,1.338,1.391,5.565,2.729c4.31,1.364,13.365,1.642,19.158,0.589	c5.298-0.963,7.546-2.89,7.546-2.89l-0.375-2.194L8.053,22.344z"/><path fill="#c8e6c9" d="M41.444,14.25c-0.008,4.812,0,8-1,9c-1.73,1.73-6,4-16,4s-14.3-2.3-16-4c-0.78-0.78-0.96-3.14-1-6	c-0.01-0.81,0-2.56,0-3C7.444,14.25,23.018,22.199,41.444,14.25z"/><path fill="#ffcdd2" fill-rule="evenodd" d="M34.677,12.792c0.418,0.36,0.465,0.992,0.104,1.41	c-0.36,0.418-0.992,0.465-1.41,0.104c-0.418-0.36-0.465-0.992-0.104-1.41C33.627,12.479,34.259,12.432,34.677,12.792z" clip-rule="evenodd"/><path fill="#ffcdd2" fill-rule="evenodd" d="M29.602,13.292c0.418,0.36,0.465,0.992,0.104,1.41	c-0.361,0.418-0.992,0.465-1.41,0.104s-0.465-0.992-0.104-1.41C28.552,12.979,29.184,12.932,29.602,13.292z" clip-rule="evenodd"/><path fill="#ffcdd2" fill-rule="evenodd" d="M29.602,8.292c0.418,0.36,0.465,0.992,0.104,1.41	c-0.361,0.418-0.992,0.465-1.41,0.104s-0.465-0.992-0.104-1.41C28.552,7.979,29.184,7.932,29.602,8.292z" clip-rule="evenodd"/><path fill="#ffcdd2" fill-rule="evenodd" d="M20.979,8.228c0.418,0.36,0.465,0.992,0.104,1.41	c-0.361,0.418-0.992,0.465-1.41,0.104c-0.418-0.36-0.465-0.992-0.104-1.41C19.929,7.914,20.561,7.867,20.979,8.228z" clip-rule="evenodd"/><path fill="#ffcdd2" fill-rule="evenodd" d="M25.177,11.792c0.418,0.36,0.465,0.992,0.104,1.41	c-0.36,0.418-0.992,0.465-1.41,0.104c-0.418-0.36-0.465-0.992-0.104-1.41C24.127,11.479,24.759,11.432,25.177,11.792z" clip-rule="evenodd"/><path fill="#ffcdd2" fill-rule="evenodd" d="M17.677,13.292c0.418,0.36,0.465,0.992,0.104,1.41	c-0.36,0.418-0.992,0.465-1.41,0.104c-0.418-0.36-0.465-0.992-0.104-1.41C16.627,12.979,17.259,12.932,17.677,13.292z" clip-rule="evenodd"/><path fill="#dcedc8" d="M18.227,42.751h12.038c0.786,0,1.424-0.637,1.424-1.424V30.778c0-0.786-0.637-1.424-1.424-1.424	H18.227c-0.786,0-1.424,0.637-1.424,1.424v10.549C16.803,42.114,17.441,42.751,18.227,42.751z"/><path fill="#7cb342" d="M18.19,31.672c0,0,0.583,5.78,3.379,7.907c1.921,1.462,4.542,1.395,6.129-0.513	c1.587-1.909,1.602-5.031-0.38-6.403C23.523,30.035,18.19,31.672,18.19,31.672z"/><path fill="#558b2f" d="M22.597,34.518c2.387,1.119,5.441,4.33,6.359,6.523l0.853-1.119	C28.293,37.739,25.105,34.772,22.597,34.518z"/></svg>