<svg xmlns="http://www.w3.org/2000/svg"  viewBox="0 0 48 48" width="480px" height="480px" baseProfile="basic"><path fill="#b2ebf2" d="M41.699,17.724l-7.318-6.294h-7.343V7.234c0-0.835-0.332-1.635-0.922-2.225s-1.391-0.922-2.225-0.922	c-3.493,0-9.096,0-12.589,0c-0.835,0-1.635,0.332-2.225,0.922S8.154,6.399,8.154,7.234c0,2.065,0,4.754,0,6.819	c0,0.088,0.004,0.175,0.011,0.262c-0.007,0.087-0.011,0.174-0.011,0.262v27.276c0,0.835,0.332,1.635,0.922,2.225	S10.467,45,11.301,45h27.276c0.835,0,1.635-0.332,2.225-0.922s0.922-1.391,0.922-2.225C41.724,35.451,41.699,17.724,41.699,17.724z M22.841,11.43H12.35V8.283h10.491V11.43z"/><rect width="4.76" height="8.285" x="37.246" y="8.642" fill="#4dd0e1" transform="rotate(-49.436 39.627 12.784)"/><path fill="#4db6ac" d="M37.84,43.784H11.978c-1.417,0-2.566-1.149-2.566-2.566V26.669h30.995v14.549	C40.406,42.635,39.257,43.784,37.84,43.784z"/><path fill="#dcedc8" d="M16.455,39.755h16.968c1.108,0,2.007-0.899,2.007-2.007v-14.87c0-1.108-0.898-2.007-2.007-2.007	H16.455c-1.108,0-2.007,0.899-2.007,2.007v14.87C14.449,38.856,15.347,39.755,16.455,39.755z"/><path fill="#7cb342" d="M16.403,24.138c0,0,0.822,8.147,4.762,11.145c2.708,2.06,6.403,1.967,8.639-0.723	s2.258-7.091-0.535-9.025C23.92,21.831,16.403,24.138,16.403,24.138z"/><path fill="#558b2f" d="M22.616,28.15c3.365,1.577,7.669,6.103,8.963,9.194l1.202-1.577	C30.643,32.689,26.149,28.507,22.616,28.15z"/><circle cx="37.463" cy="19.284" r="1.017" fill="#fafafa"/><rect width="1.284" height="4.735" x="37.003" y="8.73" fill="#00acc1" transform="rotate(40.633 37.646 11.099)"/><rect width="1.284" height="4.735" x="38.869" y="10.296" fill="#00acc1" transform="rotate(40.633 39.512 12.664)"/><rect width="1.284" height="4.735" x="40.796" y="11.981" fill="#00acc1" transform="rotate(40.633 41.439 14.35)"/></svg>