<svg xmlns="http://www.w3.org/2000/svg"  viewBox="0 0 48 48" width="480px" height="480px"><path fill="#1976D2" d="M23,9v16h2V9c0-1.1,0.9-2,2-2h0c1.1,0,2,0.9,2,2v0c0,0.6,0.4,1,1,1h0c0.6,0,1-0.4,1-1v0c0-2.2-1.8-4-4-4h0C24.8,5,23,6.8,23,9z"/><path fill="#1976D2" d="M25 9v16h-2V9c0-1.1-.9-2-2-2h0c-1.1 0-2 .9-2 2v0c0 .6-.4 1-1 1h0c-.6 0-1-.4-1-1v0c0-2.2 1.8-4 4-4h0C23.2 5 25 6.8 25 9zM30 11A1 1 0 1 0 30 13 1 1 0 1 0 30 11zM30 23A1 1 0 1 0 30 25 1 1 0 1 0 30 23zM30 17A1 1 0 1 0 30 19 1 1 0 1 0 30 17z"/><path fill="#1976D2" d="M18 11A1 1 0 1 0 18 13 1 1 0 1 0 18 11zM18 23A1 1 0 1 0 18 25 1 1 0 1 0 18 23zM30 26A1 1 0 1 0 30 28 1 1 0 1 0 30 26zM18 26A1 1 0 1 0 18 28 1 1 0 1 0 18 26zM18 17A1 1 0 1 0 18 19 1 1 0 1 0 18 17zM30 20A1 1 0 1 0 30 22 1 1 0 1 0 30 20zM18 20A1 1 0 1 0 18 22 1 1 0 1 0 18 20z"/><path fill="#00897B" d="M20 31H28V40H20z"/><g><path fill="#2196F3" d="M23 20.5V28h2v-7.5c0-2.5 2-4.5 4.5-4.5h0c2.5 0 4.5 2 4.5 4.5V21c0 .6.4 1 1 1l0 0c.6 0 1-.4 1-1v-.5c0-3.6-2.9-6.5-6.5-6.5h0C25.9 14 23 16.9 23 20.5zM35 23A1 1 0 1 0 35 25 1 1 0 1 0 35 23zM35 26A1 1 0 1 0 35 28 1 1 0 1 0 35 26z"/></g><g><path fill="#2196F3" d="M25 20.5V28h-2v-7.5c0-2.5-2-4.5-4.5-4.5h0C16 16 14 18 14 20.5V21c0 .6-.4 1-1 1h0c-.6 0-1-.4-1-1v-.5c0-3.6 2.9-6.5 6.5-6.5h0C22.1 14 25 16.9 25 20.5zM13 23A1 1 0 1 0 13 25 1 1 0 1 0 13 23zM13 26A1 1 0 1 0 13 28 1 1 0 1 0 13 26z"/></g><g><path fill="#26A69A" d="M34.7 43H13.3c-3.8 0-7.1-2.4-8.3-6l0 0h38l0 0C41.8 40.6 38.5 43 34.7 43zM28.8 35h-9.5c-4.8 0-9.1-3.3-10.2-8l0 0h30l0 0C37.8 31.7 33.6 35 28.8 35z"/></g></svg>