<svg xmlns="http://www.w3.org/2000/svg"  viewBox="0 0 48 48" width="480px" height="480px"><path fill="#FFC107" d="M43.013 7.839L40.182 5.013 21.785 23.384 24.615 26.21z"/><path fill="#546E7A" d="M24.807 20.368L27.637 23.195 24.099 26.728 21.269 23.901z"/><path fill="#B0BEC5" d="M19.846 22.495l-5.66-.001-1.415 1.413c-.583.585-7.758 10.627-7.758 10.627s10.019-7.23 10.58-7.79L19.846 22.495zM25.508 33.8l-.001-5.651-4.245 4.238c-.583.586-7.758 10.626-7.758 10.626s10.019-7.23 10.58-7.79L25.508 33.8z"/><path fill="#B0BEC5" d="M16.308,26.027c0.391-0.389,1.025-0.39,1.416,0c0.391,0.392,0.39,1.024,0,1.414l2.83,2.826c0.391-0.39,1.025-0.39,1.415,0c0.391,0.39,0.391,1.023,0,1.414l3.539,2.118c1.563-1.561,1.563-4.091,0-5.651l-5.661-5.654c-1.563-1.561-4.098-1.561-5.661,0L16.308,26.027z"/><path fill="#B0BEC5" d="M24.099,26.728l-2.83-2.826l-4.252,4.247c-0.583,0.583-7.758,10.624-7.758,10.624s10.019-7.229,10.58-7.79L24.099,26.728z"/></svg>