<svg xmlns="http://www.w3.org/2000/svg"  viewBox="0 0 48 48" width="480px" height="480px"><path fill="#d38013" d="M15 27.2H17V32.9H15z" transform="rotate(-45.001 16 30)"/><path fill="#d38013" d="M10,41.4L4.6,36L38,2.6L43.4,8L10,41.4z M7.4,36l2.6,2.6L40.6,8L38,5.4L7.4,36z"/><path fill="#d38013" d="M35 7.2H37V12.9H35z" transform="rotate(-45.001 36 10)"/><path fill="#d38013" d="M31 11.2H33V16.9H31z" transform="rotate(-45.001 32 14)"/><path fill="#d38013" d="M11 31.2H13V36.9H11z" transform="rotate(-45.001 12 34)"/><path fill="#d38013" d="M29.2 29H34.9V31H29.2z" transform="rotate(-45.001 32 30)"/><path fill="#d38013" d="M38,41.4L4.6,8L10,2.6L43.4,36L38,41.4z M7.4,8L38,38.6l2.6-2.6L10,5.4L7.4,8z"/><path fill="#d38013" d="M9.2 9H14.899999999999999V11H9.2z" transform="rotate(-45.001 12 10)"/><path fill="#d38013" d="M13.2 13H18.9V15H13.2z" transform="rotate(-45.001 16 14)"/><path fill="#d38013" d="M33.2 33H38.900000000000006V35H33.2z" transform="rotate(-45.001 36 34)"/><path fill="#ffb74d" d="M17,19l-3,26h20l-3-26H17z"/><path fill="#e65100" d="M28,45h-8v-6c0-2.2,1.8-4,4-4s4,1.8,4,4V45z"/><path fill="#805a26" d="M25,28h-2v-2c0-0.6,0.4-1,1-1s1,0.4,1,1V28z"/><path fill="#c62828" d="M32,19v2H16v-2l8-8L32,19z"/></svg>