<svg xmlns="http://www.w3.org/2000/svg"  viewBox="0 0 48 48" width="480px" height="480px" baseProfile="basic"><path fill="#ff8f00" d="M28.729,20.974c0.538-0.126,0.871-0.664,0.745-1.202c-0.127-0.537-0.658-0.873-1.202-0.746	c-0.069,0.016-7.063,1.613-10.949-0.843c-1.254-0.793-2.021-1.903-2.345-3.395c-0.416-1.917,0.13-3.558,1.537-4.623	c1.836-1.386,4.721-1.505,7.016-0.282c0.359,0.192,0.803,0.146,1.115-0.119c0.312-0.264,0.433-0.692,0.303-1.08	c-0.611-1.834-3.397-4.036-7.001-4.543c-2.43-0.343-7.062-0.109-10.771,5.294c-4.763,6.938-5.547,15.777-1.998,22.519	C8.929,39.077,17.033,43,28,43c0.553,0,1-0.448,1-1c0-0.544-0.436-0.983-0.977-0.995l0.454-19.976	C28.604,21.001,28.701,20.98,28.729,20.974z"/><path fill="#ffb300" d="M13.29,40.637c-0.343,0-0.678-0.177-0.863-0.494c-2.978-5.075-3.64-10.308-1.866-14.734	c1.421-3.544,4.358-6.333,7.665-7.275c0.53-0.152,1.084,0.156,1.236,0.687c0.151,0.531-0.156,1.084-0.688,1.236	c-2.726,0.778-5.161,3.114-6.357,6.097c-1.088,2.716-1.671,7.172,1.734,12.978c0.279,0.476,0.12,1.089-0.356,1.368	C13.636,40.592,13.462,40.637,13.29,40.637z"/><path fill="#ffb300" d="M9.501,38.032c-0.385,0-0.751-0.223-0.916-0.597c-3.09-7-1.974-11.682-0.493-14.377	c2.057-3.743,5.699-5.518,8.423-5.931c0.545-0.083,1.057,0.293,1.139,0.839c0.083,0.546-0.292,1.056-0.838,1.139	c-2.148,0.326-5.264,1.809-6.971,4.917c-1.812,3.299-1.614,7.658,0.57,12.607c0.223,0.505-0.006,1.096-0.511,1.319	C9.772,38.004,9.636,38.032,9.501,38.032z"/><path fill="#ffb300" d="M6.28,34.479c-0.38,0-0.743-0.217-0.911-0.585C1.895,26.278,4.576,21.51,6.483,19.346	c2.463-2.794,6.365-4.263,9.077-3.416c0.527,0.165,0.821,0.725,0.657,1.252c-0.165,0.526-0.723,0.82-1.253,0.657	c-1.726-0.538-4.813,0.371-6.98,2.83c-1.588,1.801-3.802,5.806-0.795,12.396c0.229,0.502,0.008,1.096-0.495,1.325	C6.56,34.45,6.419,34.479,6.28,34.479z"/><path fill="#ffb300" d="M3.769,28.748c-0.42,0-0.811-0.266-0.949-0.687c-2.594-7.84,0.753-11.614,2.979-13.165	c3.395-2.368,7.797-2.268,9.779-0.689c0.432,0.344,0.503,0.973,0.159,1.405c-0.344,0.432-0.974,0.503-1.405,0.159	c-1.196-0.954-4.67-1.13-7.39,0.766c-3.055,2.129-3.844,5.999-2.224,10.896c0.174,0.524-0.11,1.09-0.635,1.263	C3.979,28.731,3.872,28.748,3.769,28.748z"/><path fill="#ffb300" d="M3.485,18.516c-0.028,0-0.058-0.001-0.087-0.004c-0.551-0.047-0.958-0.532-0.91-1.083	c0.354-4.081,2.634-6.753,6.257-7.334c3.063-0.493,6.46,0.731,7.266,2.616c0.218,0.508-0.018,1.095-0.525,1.312	c-0.509,0.215-1.096-0.018-1.312-0.526c-0.31-0.721-2.537-1.838-5.111-1.428c-1.897,0.304-4.232,1.511-4.581,5.532	C4.436,18.123,3.999,18.516,3.485,18.516z"/><path fill="#ffb300" d="M15.515,12.595c-0.517,0-0.955-0.397-0.996-0.921c-0.079-1.012-0.867-1.909-2.055-2.341	c-1.309-0.476-3.294-0.381-4.95,1.306c-0.389,0.394-1.021,0.399-1.415,0.013c-0.394-0.387-0.399-1.02-0.013-1.414	c2.322-2.365,5.168-2.472,7.062-1.784c1.934,0.704,3.224,2.261,3.365,4.063c0.043,0.551-0.368,1.032-0.919,1.076	C15.567,12.594,15.541,12.595,15.515,12.595z"/><path fill="#ffb300" d="M16.526,11.158c-0.103,0-0.208-0.016-0.311-0.05c-0.525-0.172-0.812-0.736-0.64-1.262	c0.22-0.672-0.156-1.816-1.165-2.566c-0.719-0.535-2.248-1.211-4.397,0.286c-0.453,0.315-1.075,0.204-1.392-0.25	C8.306,6.864,8.418,6.24,8.871,5.925c2.285-1.591,4.802-1.684,6.733-0.249c1.604,1.192,2.391,3.208,1.872,4.793	C17.339,10.89,16.947,11.158,16.526,11.158z"/><path fill="#ffb300" d="M18.204,42.941c-0.219,0-0.44-0.072-0.625-0.22c-1.934-1.551-5.019-8.529-4.058-14.819	c0.662-4.329,3.132-7.445,7.144-9.013c0.516-0.203,1.095,0.053,1.296,0.567c0.201,0.515-0.053,1.095-0.567,1.295	c-3.355,1.312-5.339,3.819-5.895,7.453c-0.857,5.605,1.927,11.83,3.332,12.956c0.431,0.346,0.5,0.975,0.154,1.406	C18.788,42.813,18.497,42.941,18.204,42.941z"/><ellipse cx="28.5" cy="31" fill="#5d4037" rx="10" ry="11.5"/><path fill="#e65100" d="M23.374,30.998c-0.991-0.745-3.927-0.26-3.554,2.566c0.465,3.522,2.704,3.2,4.267,2.834	c1.605-0.053,3.85-0.323,3.385-3.845C27.091,29.667,24.138,30.021,23.374,30.998z"/><path fill="#9e9d24" d="M35.761,32.873c0.38,2.085-1.459,3.728-3.728,3.728c-2.269,0-4.153-1.718-4.109-3.837	c0.029-1.392,1.136-2.296,1.609-3.427c0.76-1.817,1.162-3.224,2.561-3.224c1.507,0,1.499,1.371,2.083,3.367	C34.472,30.49,35.473,31.289,35.761,32.873z"/><ellipse cx="27.8" cy="33.921" fill="#bf360c" rx="1.768" ry="1.847"/><path fill="#ffa000" d="M21.574,37.979c0,0-0.947-3.505,2.416-3.837s6.91,3.174,6.91,3.174l-3.357,4.626	C27.542,41.941,23.089,40.3,21.574,37.979z"/><path fill="#fb8c00" d="M21.705,37.168c0,0,3.537,1.895,6.568,1.295l0.658,1.619c0,0-4.054,1.213-5.706-0.445	C21.574,37.979,21.705,37.168,21.705,37.168z"/><path fill="#fbc02d" d="M28.5,44C22.159,44,17,38.168,17,31s5.159-13,11.5-13S40,23.832,40,31S34.841,44,28.5,44z M28.5,21	c-4.687,0-8.5,4.486-8.5,10s3.813,10,8.5,10S37,36.514,37,31S33.187,21,28.5,21z"/><path fill="#ffb300" d="M18.5,10.116c-0.101,0-0.204-0.016-0.306-0.048c-0.525-0.169-0.815-0.732-0.646-1.258	C18,7.401,17.355,6.255,16.666,5.702c-0.737-0.592-1.645-0.673-2.425-0.217c-0.476,0.278-1.089,0.117-1.367-0.36	s-0.117-1.089,0.359-1.368c1.504-0.878,3.298-0.729,4.685,0.385c1.56,1.252,2.161,3.324,1.534,5.279	C19.316,9.846,18.923,10.116,18.5,10.116z"/><path fill="#ffb300" d="M20.305,10.077c-0.224,0-0.448-0.075-0.635-0.228c-0.427-0.351-0.487-0.981-0.136-1.408	c0.638-0.774,0.568-1.668,0.291-2.246c-0.23-0.479-0.652-0.777-0.959-0.78c-0.005,0-0.01,0-0.014,0c-0.547,0-0.992-0.439-1-0.987	c-0.007-0.552,0.435-1.006,0.986-1.013c1.138-0.022,2.215,0.718,2.789,1.915c0.695,1.448,0.484,3.127-0.551,4.383	C20.88,9.953,20.594,10.077,20.305,10.077z"/><path fill="#f57c00" d="M35.9,32c-1.814-1.732-7.911-1.54-7.911,4.146c0,7.085,4.635,7.033,7.911,6.718	c3.275,0.315,7.911,0.367,7.911-6.718C43.811,30.339,37.714,30.268,35.9,32z"/><path fill="#ef6c00" d="M27.994,35.925c0,0,0.227,1.927,2.217,1.391c0,0,0.6,1.705,2.937,0.853c0,0,1.116,1.109,2.753,0.239	c0,0,1.755,1.064,2.916-0.002c0,0,1.342,0.616,2.7-0.261c0,0,1.303,1.014,2.197-0.335c-0.397,2.893-2.039,4.794-2.039,4.794	L34.6,43.505l-5.669-2.716C28.931,40.789,27.607,37.939,27.994,35.925z"/><path fill="#689f38" d="M34.979,32.633c0,0,0.063-4.642,3.537-4.832l0.505,0.884c0,0-2.968,1.168-1.579,3.947	C37.442,32.633,36.589,33.454,34.979,32.633z"/><path fill="#bf360c" d="M33.785,40.219c0,0-3.088-0.356-2.875,2.629c0.214,2.986,2.394,3.093,3.876,2.873	c1.329-0.197,2.386-1.275,2.178-3.298C36.755,40.4,35.19,39.771,33.785,40.219z"/><path fill="#7cb342" d="M19.06,44.72l-0.04,0.06C18.98,44.75,19,44.73,19.06,44.72z"/><path fill="#689f38" d="M27.44,43.09c-0.34-0.08-5.82,2.12-8.38,1.63c0.75-0.13,0.87-1.1,2.77-3.43	c1.9-2.33,4.73-0.8,4.73-0.8L27.44,43.09z"/><path fill="#388e3c" d="M27.99,44.72c-3.3,1.87-8.77,0.4-8.97,0.06l0.04-0.06c2.56,0.49,4.46-2.64,7.33-1.89	c0.36,0.09,0.71,0.18,1.05,0.26L27.99,44.72z"/><path fill="#f4511e" d="M29.205,39.374c0,0-3.927-0.947-4.224,2.559c-0.297,3.506,2.699,4.007,4.219,4.007	c1.387,0,3.575-1.07,3.694-3.456S31.109,39.096,29.205,39.374z"/><path fill="#fbc02d" d="M35.9,44.445c-0.554-1.294,2.674-3.008,5.989-4.097c3.316-1.089,4.737-0.142,4.974,0.521	c0.237,0.663-1.803,2.394-3.788,3.03C41.073,44.54,36.597,46.073,35.9,44.445z"/><path fill="#f9a825" d="M36.079,44.72c0,0,2.695,0.195,7.308-1.782l-0.134,0.891C43.253,43.829,37.179,46.132,36.079,44.72z"/><path fill="#558b2f" d="M44.249,41.468c-0.804,0.261-2.087,0.733-2.497,2.283s-0.699,1.691-0.699,1.691	s6.158-0.91,5.914-4.805C46.967,40.637,44.936,41.245,44.249,41.468z"/><path fill="#689f38" d="M44.24,41.595c-0.804,0.262-2.259,0.784-3.362-0.379c-0.527-0.556-1.72-0.633-1.72-0.633	s5.717-3.241,7.81,0.053C46.967,40.637,44.927,41.372,44.24,41.595z"/><path fill="#827717" d="M32.637,26.265l-1-0.02l0.5,0.01l-0.5-0.006c0-0.037-0.006-0.915-0.797-1.327l0.463-0.887	C32.65,24.739,32.638,26.203,32.637,26.265z"/><path fill="#827717" d="M22.478,31.138c0.039-0.074,0.08-0.247,0.107-0.376c0.028-0.14,0.046-0.279,0.056-0.416	c0.017-0.273-0.009-0.521-0.085-0.722l1.036-0.785c0.352,0.377,0.553,0.825,0.679,1.256c0.061,0.217,0.107,0.433,0.138,0.651	c0.029,0.228,0.053,0.413,0.046,0.693L22.478,31.138z"/><path fill="#ffb300" d="M24.65,9.76c-0.32,0.27-0.76,0.32-1.12,0.12c-0.89-0.47-1.86-0.74-2.83-0.82	C21.1,8.15,21.37,6.8,20.93,5c2.09,0.93,3.59,2.4,4.02,3.68C25.08,9.07,24.96,9.5,24.65,9.76z"/></svg>