<svg xmlns="http://www.w3.org/2000/svg"  viewBox="0 0 48 48" width="480px" height="480px"><path fill="#2196F3" d="M35,44c0,0.553-0.447,1-1,1H14c-0.553,0-1-0.447-1-1c0,0,0-13,0-19c0-5,6-8,6-8h10c0,0,6,3,6,8S35,44,35,44z"/><path fill="#1565C0" d="M19 13H29V17H19z"/><path fill="#37474F" d="M18 10H30V14H18z"/><path fill="#263238" d="M27,3h-6c0,0,0,4-3,7c2,0,3.034,0,6,0c-1.104,0-2-0.896-2-2s0.896-2,2-2s2,0.896,2,2s-0.896,2-2,2c3.096,0,5,0,6,0C27,7,27,3,27,3z"/><path fill="#90CAF9" d="M31 35.356c-.307.171-1.651.79-1.933.896-.45.17-.912.338-1.36.497C27.053 36.981 26.42 37 25.66 37c-1.07 0-2.059-.229-2.965-.479-.302-.082-.605-.174-.912-.266-.954-.286-1.94-.582-2.975-.675-.533-.045-1.125.016-1.809.162v2.092c.102-.041.204-.082.303-.122.539-.127.974-.175 1.326-.14.834.074 1.682.329 2.58.599.32.096.641.191.957.279C23.209 38.736 24.354 39 25.66 39c.888 0 1.764-.028 2.718-.366.46-.165.935-.337 1.394-.51.179-.067.711-.303 1.229-.543V35.356zM29.067 32.252c-.45.17-.912.338-1.36.497C27.053 32.981 26.42 33 25.66 33c-1.07 0-2.059-.229-2.965-.479-.302-.082-.605-.174-.912-.266-.954-.286-1.94-.582-2.975-.675-.533-.045-1.125.017-1.809.163v2.091c.102-.041.204-.082.303-.122.539-.127.974-.176 1.326-.14.834.074 1.682.329 2.58.599.32.096.641.191.957.279C23.209 34.736 24.354 35 25.66 35c.888 0 1.764-.028 2.718-.366.46-.165.935-.337 1.394-.51.179-.067.711-.303 1.229-.543v-2.225C30.693 31.527 29.349 32.146 29.067 32.252zM29.067 28.252c-.45.17-.912.338-1.36.497C27.053 28.981 26.42 29 25.66 29c-1.07 0-2.059-.229-2.965-.479-.302-.082-.605-.174-.912-.266-.954-.286-1.94-.582-2.975-.675-.533-.045-1.125.016-1.809.162v2.092c.102-.041.204-.082.303-.122.539-.127.974-.176 1.326-.14.834.074 1.682.329 2.58.599.32.096.641.191.957.279C23.209 30.736 24.354 31 25.66 31c.888 0 1.764-.028 2.718-.366.46-.165.935-.337 1.394-.51.179-.067.711-.303 1.229-.543v-2.225C30.693 27.527 29.349 28.146 29.067 28.252z"/></svg>