<svg xmlns="http://www.w3.org/2000/svg"  viewBox="0 0 48 48" width="480px" height="480px"><path fill="#6d4c41" d="M11,6h24v5H11V6z"/><path fill="#a1887f" d="M9 3h3v26H9V3zM34 3h3v26h-3V3z"/><path fill="#455a64" d="M40,43c0,0.6-0.4,1-1,1H7c-0.6,0-1-0.4-1-1V29c0-0.6,0.4-1,1-1h32c0.6,0,1,0.4,1,1V43z"/><path fill="#78909c" d="M12 43c0 .6-.4 1-1 1H7c-.6 0-1-.4-1-1v-2c0-.6.4-1 1-1h4c.6 0 1 .4 1 1V43zM36 43c0 .6-.4 1-1 1h-4c-.6 0-1-.4-1-1v-2c0-.6.4-1 1-1h4c.6 0 1 .4 1 1V43zM20 43c0 .6-.4 1-1 1h-4c-.6 0-1-.4-1-1v-2c0-.6.4-1 1-1h4c.6 0 1 .4 1 1V43zM28 43c0 .6-.4 1-1 1h-4c-.6 0-1-.4-1-1v-2c0-.6.4-1 1-1h4c.6 0 1 .4 1 1V43zM12 31c0 .6-.4 1-1 1H7c-.6 0-1-.4-1-1v-2c0-.6.4-1 1-1h4c.6 0 1 .4 1 1V31zM36 31c0 .6-.4 1-1 1h-4c-.6 0-1-.4-1-1v-2c0-.6.4-1 1-1h4c.6 0 1 .4 1 1V31zM20 31c0 .6-.4 1-1 1h-4c-.6 0-1-.4-1-1v-2c0-.6.4-1 1-1h4c.6 0 1 .4 1 1V31zM28 31c0 .6-.4 1-1 1h-4c-.6 0-1-.4-1-1v-2c0-.6.4-1 1-1h4c.6 0 1 .4 1 1V31zM16 37c0 .6-.4 1-1 1h-4c-.6 0-1-.4-1-1v-2c0-.6.4-1 1-1h4c.6 0 1 .4 1 1V37zM40 37c0 .6-.4 1-1 1h-4c-.6 0-1-.4-1-1v-2c0-.6.4-1 1-1h4c.6 0 1 .4 1 1V37zM40 31c0 .6-.4 1-1 1s-1-.4-1-1v-2c0-.6.4-1 1-1s1 .4 1 1V31zM40 43c0 .6-.4 1-1 1s-1-.4-1-1v-2c0-.6.4-1 1-1s1 .4 1 1V43zM8 37c0 .6-.4 1-1 1s-1-.4-1-1v-2c0-.6.4-1 1-1s1 .4 1 1V37zM24 37c0 .6-.4 1-1 1h-4c-.6 0-1-.4-1-1v-2c0-.6.4-1 1-1h4c.6 0 1 .4 1 1V37zM32 37c0 .6-.4 1-1 1h-4c-.6 0-1-.4-1-1v-2c0-.6.4-1 1-1h4c.6 0 1 .4 1 1V37z"/><path fill="#5c6bc0" d="M28,20h-2c0-1.7-1.3-3-3-3s-3,1.3-3,3h-2c0-2.8,2.2-5,5-5S28,17.2,28,20z"/><path fill="#9fa8da" d="M26 28h-6l-2-8h10L26 28zM15 12c-.2 0-.4-.1-.6-.2-.4-.3-.5-1-.2-1.4l4-5c.3-.4 1-.5 1.4-.2.4.3.5 1 .2 1.4l-4 5C15.6 11.9 15.3 12 15 12zM19 12c-.2 0-.4-.1-.6-.2-.4-.3-.5-1-.2-1.4l4-5c.3-.4 1-.5 1.4-.2.4.3.5 1 .2 1.4l-4 5C19.6 11.9 19.3 12 19 12zM23 17c-.6 0-1-.4-1-1v-5.4l4.2-5.3c.3-.4 1-.5 1.4-.2.4.3.5 1 .2 1.4L24 11.4V16C24 16.6 23.6 17 23 17z"/><path fill="#9fa8da" d="M27 12c-.2 0-.4-.1-.6-.2-.4-.3-.5-1-.2-1.4l4-5c.3-.4 1-.5 1.4-.2.4.3.5 1 .2 1.4l-4 5C27.6 11.9 27.3 12 27 12zM42 16h-2V7h-3v2h1v9h4c.6 0 1-.4 1-1S42.6 16 42 16z"/></svg>